<svg xmlns="http://www.w3.org/2000/svg"><defs><clipPath id="carrie-forde-logo-a" transform="translate(-0.49 -1.38)"><polygon points="54.36 39.08 38.2 39.08 38.2 55.25 38.2 71.69 38.2 87.85 38.2 120.46 54.36 120.46 54.36 87.85 157.28 87.85 157.28 71.69 54.36 71.69 54.36 55.25 157.28 55.25 157.28 39.08 54.36 39.08" fill="none"/></clipPath><linearGradient id="carrie-forde-logo-b" x1="38.85" y1="471.11" x2="40.94" y2="471.11" gradientTransform="matrix(56.96, 0, 0, -56.96, -2175.2, 26914.09)" gradientUnits="userSpaceOnUse"><stop offset="0" stop-color="#ec1b72"/><stop offset="0.02" stop-color="#ec1b72"/><stop offset="1" stop-color="#eac4dc"/><stop offset="1" stop-color="#eac4dc"/></linearGradient><clipPath id="svg-defs-a" transform="translate(-.49 -1.38)"><path fill="none" d="M54.36 39.08H38.2v81.38h16.16V87.85h102.92V71.69H54.36V55.25h102.92V39.08H54.36z"/></clipPath><linearGradient id="svg-defs-b" x1="38.85" y1="471.11" x2="40.94" y2="471.11" gradientTransform="matrix(56.96 0 0 -56.96 -2175.2 26914.09)" gradientUnits="userSpaceOnUse"><stop offset="0" stop-color="#ec1b72"/><stop offset=".02" stop-color="#ec1b72"/><stop offset="1" stop-color="#eac4dc"/><stop offset="1" stop-color="#eac4dc"/></linearGradient></defs><symbol viewBox="0 0 584.92 156.8" id="carrie-forde-logo"><title>carrie-forde-logo</title><polygon points="156.8 21.55 156.8 0 21.55 0 0 0 0 21.55 0 135.25 0 156.8 21.55 156.8 156.8 156.8 156.8 135.25 21.55 135.25 21.55 21.55 156.8 21.55" fill="#424143"/><g clip-path="url(#carrie-forde-logo-a)"><rect x="37.71" y="37.71" width="119.09" height="81.38" fill="url(#carrie-forde-logo-b)"/></g><rect x="70.4" y="102.13" width="86.4" height="16.16" fill="#bcbec0"/><path d="M193.76,105.8H205.2l0,2.18h-9v5.77h8.11v2.19h-8.11v7.42h-2.4Z" transform="translate(-0.49 -1.38)" fill="#424143"/><path d="M219.35,123.36l-3.49-5.52a9.81,9.81,0,0,1-1,0h-4.47v5.47H208V105.8h6.87a7.83,7.83,0,0,1,5.16,1.54,5.43,5.43,0,0,1,1.81,4.38,6.24,6.24,0,0,1-1,3.59,5.59,5.59,0,0,1-2.84,2.11l4.08,5.94Zm-4.47-7.65a5.3,5.3,0,0,0,3.46-1,3.57,3.57,0,0,0,1.21-2.92,3.44,3.44,0,0,0-1.21-2.85,5.42,5.42,0,0,0-3.46-1h-4.47v7.73Z" transform="translate(-0.49 -1.38)" fill="#424143"/><path d="M238.47,106.83a8.86,8.86,0,0,1,3.35,3.22,8.61,8.61,0,0,1,1.23,4.51,8.71,8.71,0,0,1-1.23,4.53,9,9,0,0,1-3.35,3.26,9.68,9.68,0,0,1-9.3,0,9,9,0,0,1-3.35-3.26,8.71,8.71,0,0,1-1.23-4.53,8.61,8.61,0,0,1,1.23-4.51,9,9,0,0,1,3.33-3.22,9.79,9.79,0,0,1,9.32,0Zm-8,1.88a6.83,6.83,0,0,0-2.5,2.45,6.46,6.46,0,0,0-.93,3.4A6.55,6.55,0,0,0,228,118a6.88,6.88,0,0,0,2.5,2.47,6.6,6.6,0,0,0,3.4.92,6.49,6.49,0,0,0,3.37-.92,6.85,6.85,0,0,0,2.46-2.47,6.62,6.62,0,0,0,.91-3.41,6.54,6.54,0,0,0-.91-3.4,6.8,6.8,0,0,0-2.46-2.45,6.57,6.57,0,0,0-3.37-.9A6.68,6.68,0,0,0,230.45,108.71Z" transform="translate(-0.49 -1.38)" fill="#424143"/><path d="M259,105.8h2.38v17.56H259l-10-13.6v13.6h-2.4V105.8H249L259,119.42Z" transform="translate(-0.49 -1.38)" fill="#424143"/><path d="M264.18,105.8H277.9V108h-5.67v15.35h-2.41V108h-5.64Z" transform="translate(-0.49 -1.38)" fill="#424143"/><path d="M279.73,114.91h6v1.68h-6Z" transform="translate(-0.49 -1.38)" fill="#424143"/><path d="M289.84,105.8H302V108h-9.78v5.42H301v2.19h-8.76v5.59h10.08v2.18H289.84Z" transform="translate(-0.49 -1.38)" fill="#424143"/><path d="M318.72,105.8h2.38v17.56h-2.43l-10-13.6v13.6h-2.41V105.8h2.44l10.06,13.62Z" transform="translate(-0.49 -1.38)" fill="#424143"/><path d="M337.92,106.94a8.41,8.41,0,0,1,3.25,3.15,9.1,9.1,0,0,1,0,9,8.49,8.49,0,0,1-3.28,3.15,9.54,9.54,0,0,1-4.66,1.14h-7.08V105.8h7.15A9.43,9.43,0,0,1,337.92,106.94Zm-1.25,13.39A6.26,6.26,0,0,0,339,118a6.63,6.63,0,0,0,.87-3.36,6.54,6.54,0,0,0-.88-3.39,6.4,6.4,0,0,0-2.39-2.37,6.7,6.7,0,0,0-3.38-.87h-4.69v13.2h4.79A6.6,6.6,0,0,0,336.67,120.33Z" transform="translate(-0.49 -1.38)" fill="#424143"/><path d="M352.36,105.8h12.19V108h-9.78v5.42h8.75v2.19h-8.75v5.59h10.08v2.18H352.36Z" transform="translate(-0.49 -1.38)" fill="#424143"/><path d="M381.23,105.8h2.39v17.56h-2.44l-10-13.6v13.6h-2.41V105.8h2.43l10.06,13.62Z" transform="translate(-0.49 -1.38)" fill="#424143"/><path d="M400.8,114.78h2.13v6.45a10.64,10.64,0,0,1-3.11,1.68,10.48,10.48,0,0,1-3.53.63,9.29,9.29,0,0,1-4.64-1.19,8.91,8.91,0,0,1-3.33-3.26,8.79,8.79,0,0,1-1.22-4.53,8.7,8.7,0,0,1,1.23-4.51,8.84,8.84,0,0,1,3.37-3.22,9.52,9.52,0,0,1,4.71-1.18,10.3,10.3,0,0,1,3.58.65,9.72,9.72,0,0,1,3,1.78l-1.38,1.76a7.69,7.69,0,0,0-2.42-1.52,7.54,7.54,0,0,0-2.8-.54,6.91,6.91,0,0,0-6,3.36,6.82,6.82,0,0,0,0,6.84,6.79,6.79,0,0,0,2.51,2.48,6.66,6.66,0,0,0,3.46.92,7.43,7.43,0,0,0,2.24-.36,8.47,8.47,0,0,0,2.12-1Z" transform="translate(-0.49 -1.38)" fill="#424143"/><path d="M407.5,105.8h2.41v17.56H407.5Z" transform="translate(-0.49 -1.38)" fill="#424143"/><path d="M427.42,105.8h2.38v17.56h-2.43l-10-13.6v13.6h-2.4V105.8h2.43l10.06,13.62Z" transform="translate(-0.49 -1.38)" fill="#424143"/><path d="M434.85,105.8H447V108h-9.79v5.42H446v2.19h-8.76v5.59h10.09v2.18H434.85Z" transform="translate(-0.49 -1.38)" fill="#424143"/><path d="M451.23,105.8h12.19V108h-9.78v5.42h8.75v2.19h-8.75v5.59h10.08v2.18H451.23Z" transform="translate(-0.49 -1.38)" fill="#424143"/><path d="M479,123.36l-3.49-5.52a9.81,9.81,0,0,1-1,0H470v5.47h-2.41V105.8h6.87a7.79,7.79,0,0,1,5.16,1.54,5.44,5.44,0,0,1,1.82,4.38,6.24,6.24,0,0,1-1,3.59,5.58,5.58,0,0,1-2.85,2.11l4.09,5.94Zm-4.47-7.65a5.35,5.35,0,0,0,3.47-1,3.56,3.56,0,0,0,1.2-2.92A3.43,3.43,0,0,0,478,109a5.47,5.47,0,0,0-3.47-1H470v7.73Z" transform="translate(-0.49 -1.38)" fill="#424143"/><path d="M218.44,56.17a15.39,15.39,0,0,0-19.29,6.4,15.36,15.36,0,0,0,0,15.37,15.44,15.44,0,0,0,5.59,5.56,15,15,0,0,0,7.75,2.06,15.48,15.48,0,0,0,5.9-1.17,16.88,16.88,0,0,0,5.12-3.27l2.19,2.35a21,21,0,0,1-6.21,4,18.34,18.34,0,0,1-7.16,1.46,18.66,18.66,0,0,1-9.5-2.5A18.85,18.85,0,0,1,196,79.61a18,18,0,0,1-2.53-9.34A17.59,17.59,0,0,1,196,61a19.1,19.1,0,0,1,16.44-9.18A19.43,19.43,0,0,1,225.65,57l-2.14,2.5A16.2,16.2,0,0,0,218.44,56.17Z" transform="translate(-0.49 -1.38)" fill="#424143"/><path d="M260.67,88.59l-4.33-9.71H236.09l-4.28,9.71h-3.87L244.39,52.1h3.75l16.45,36.49Zm-23.18-13h17.44l-8.77-19.73Z" transform="translate(-0.49 -1.38)" fill="#424143"/><path d="M294.65,88.59l-7.88-11.9c-1.11.07-2,.1-2.56.1h-10v11.8h-3.6V52.1h13.62q6.84,0,10.57,3.16t3.74,8.95a12.52,12.52,0,0,1-2.2,7.57A11.43,11.43,0,0,1,290.06,76l8.77,12.58Zm-10.44-15q5.22,0,8-2.37a8.46,8.46,0,0,0,2.82-6.86,8.14,8.14,0,0,0-2.82-6.69q-2.82-2.3-8-2.29h-10V73.55Z" transform="translate(-0.49 -1.38)" fill="#424143"/><path d="M332.39,88.59l-7.88-11.9c-1.11.07-2,.1-2.56.1h-10v11.8h-3.6V52.1H322q6.84,0,10.57,3.16t3.74,8.95a12.52,12.52,0,0,1-2.2,7.57A11.39,11.39,0,0,1,327.8,76l8.77,12.58ZM322,73.55q5.22,0,8-2.37a8.46,8.46,0,0,0,2.82-6.86A8.14,8.14,0,0,0,330,57.63q-2.82-2.3-8-2.29h-10V73.55Z" transform="translate(-0.49 -1.38)" fill="#424143"/><path d="M346.07,52.1h3.6V88.59h-3.6Z" transform="translate(-0.49 -1.38)" fill="#424143"/><path d="M361.16,52.1h24.43v3.24H364.76v13h18.63v3.23H364.76V85.35h21.5v3.24h-25.1Z" transform="translate(-0.49 -1.38)" fill="#424143"/><path d="M409.44,52.1H432.3v3.24H413v14h17.18v3.24H413v16h-3.6Z" transform="translate(-0.49 -1.38)" fill="#424143"/><path d="M463.75,54.27a18.78,18.78,0,0,1,6.92,6.7,17.59,17.59,0,0,1,2.56,9.3,17.83,17.83,0,0,1-2.56,9.34,19.23,19.23,0,0,1-33,0,17.83,17.83,0,0,1-2.56-9.34,17.59,17.59,0,0,1,2.56-9.3,18.85,18.85,0,0,1,6.92-6.7,19.72,19.72,0,0,1,19.15,0ZM446.5,57.06a15.49,15.49,0,0,0-5.64,5.53,14.71,14.71,0,0,0-2.08,7.68A15,15,0,0,0,440.86,78a15.48,15.48,0,0,0,5.64,5.61,15.08,15.08,0,0,0,7.73,2.07,14.84,14.84,0,0,0,7.65-2.07A15.55,15.55,0,0,0,467.49,78a15,15,0,0,0,2.08-7.72,14.71,14.71,0,0,0-2.08-7.68,15.57,15.57,0,0,0-5.61-5.53,15,15,0,0,0-7.65-2A15.25,15.25,0,0,0,446.5,57.06Z" transform="translate(-0.49 -1.38)" fill="#424143"/><path d="M505.23,88.59l-7.88-11.9c-1.12.07-2,.1-2.56.1h-10v11.8h-3.61V52.1h13.63q6.84,0,10.57,3.16t3.73,8.95a12.58,12.58,0,0,1-2.19,7.57A11.42,11.42,0,0,1,500.63,76l8.77,12.58Zm-10.44-15q5.22,0,8-2.37a8.46,8.46,0,0,0,2.81-6.86,8.13,8.13,0,0,0-2.81-6.69q-2.82-2.3-8-2.29h-10V73.55Z" transform="translate(-0.49 -1.38)" fill="#424143"/><path d="M543.1,54.5a18.1,18.1,0,0,1,0,31.69,19.49,19.49,0,0,1-9.6,2.4H518.9V52.1h14.67A19.25,19.25,0,0,1,543.1,54.5Zm-1.85,28.87a15,15,0,0,0-.08-26.05,15.2,15.2,0,0,0-7.65-2h-11v30h11.17A14.93,14.93,0,0,0,541.25,83.37Z" transform="translate(-0.49 -1.38)" fill="#424143"/><path d="M560.3,52.1h24.43v3.24H563.9v13h18.64v3.23H563.9V85.35h21.51v3.24H560.3Z" transform="translate(-0.49 -1.38)" fill="#424143"/></symbol><symbol viewBox="0 0 37.63 37.63" id="close-dark-gray"><title>close-dark-gray</title><path d="M36.78 32.44l-4.31 4.31a3.06 3.06 0 0 1-4.31 0l-9.38-9.32-9.31 9.31a3.06 3.06 0 0 1-4.31 0l-4.27-4.3a3.06 3.06 0 0 1 0-4.31l9.31-9.31L.89 9.5a3.06 3.06 0 0 1 0-4.31L5.2.88a3.06 3.06 0 0 1 4.31 0l9.27 9.32L28.09.89a3.06 3.06 0 0 1 4.31 0l4.38 4.31a3.06 3.06 0 0 1 0 4.31l-9.31 9.31 9.31 9.31a3.06 3.06 0 0 1 0 4.31z" fill="#323132"/></symbol><symbol viewBox="0 0 37.63 37.63" id="close-razzmatazz"><title>close-razzmatazz</title><path d="M36.78 32.44l-4.31 4.31a3.06 3.06 0 0 1-4.31 0l-9.38-9.32-9.31 9.31a3.06 3.06 0 0 1-4.31 0l-4.27-4.3a3.06 3.06 0 0 1 0-4.31l9.31-9.31L.89 9.5a3.06 3.06 0 0 1 0-4.31L5.2.88a3.06 3.06 0 0 1 4.31 0l9.27 9.32L28.09.89a3.06 3.06 0 0 1 4.31 0l4.38 4.31a3.06 3.06 0 0 1 0 4.31l-9.31 9.31 9.31 9.31a3.06 3.06 0 0 1 0 4.31z" fill="#ed1c72"/></symbol><symbol viewBox="0 0 47.96 47.96" id="search-dark-gray"><title>search-dark-gray</title><path d="M44.27 47.99a3.61 3.61 0 0 1-2.56-1.12l-9.92-9.88a20.29 20.29 0 1 1 5.22-5.2l9.89 9.89a3.69 3.69 0 0 1-2.63 6.31zm-24-40.58A12.91 12.91 0 1 0 33.2 20.29 12.93 12.93 0 0 0 20.29 7.38z" fill="#424143"/></symbol><symbol viewBox="0 0 47.96 47.96" id="search-razzmatazz"><title>search-razzmatazz</title><path d="M44.27 47.99a3.61 3.61 0 0 1-2.56-1.12l-9.92-9.88a20.29 20.29 0 1 1 5.22-5.2l9.89 9.89a3.69 3.69 0 0 1-2.63 6.31zm-24-40.58A12.91 12.91 0 1 0 33.2 20.29 12.93 12.93 0 0 0 20.29 7.38z" fill="#ed1c72"/></symbol><symbol id="svg-defs"><title>svg-defs</title></symbol></svg>