<?xml version="1.0" encoding="UTF-8"?>
<svg width="90px" height="45px" viewBox="0 0 90 45" version="1.1" xmlns="http://www.w3.org/2000/svg" xmlns:xlink="http://www.w3.org/1999/xlink">
    <!-- Generator: Sketch 47.1 (45422) - http://www.bohemiancoding.com/sketch -->
    <title>Group 6</title>
    <desc>Created with Sketch.</desc>
    <defs></defs>
    <g id="Shop-layout" stroke="none" stroke-width="1" fill="none" fill-rule="evenodd">
        <g id="Shop-Fullwidth" transform="translate(-100.000000, -60.000000)">
            <g id="Group-6" transform="translate(100.000000, 60.000000)">
                <path d="M12,35.9318182 L12,12 L27.2398461,12 L27.2398461,16.4318182 L17.7024369,16.4318182 L17.7024369,21.5795455 L24.83882,21.5795455 L24.83882,26.0113636 L17.7024369,26.0113636 L17.7024369,35.9318182 L12,35.9318182 Z M36.2103463,16.9090909 L36.2103463,20.4545455 C37.5442563,17.954533 39.3227764,16.7045455 41.5459598,16.7045455 L41.5459598,22.6363636 L40.1453613,22.6363636 C38.8336831,22.6363636 37.8499391,22.9545423 37.1941,23.5909091 C36.5382609,24.2272759 36.2103463,25.3409011 36.2103463,26.9318182 L36.2103463,35.9318182 L30.5079094,35.9318182 L30.5079094,16.9090909 L36.2103463,16.9090909 Z M51.883711,36.1704545 C49.1714272,36.1704545 46.9482772,35.278418 45.2141941,33.4943182 C43.480111,31.7102184 42.6130825,29.3409239 42.6130825,26.3863636 C42.6130825,23.4318034 43.4745532,21.0795542 45.1975203,19.3295455 C46.9204875,17.5795367 49.1491954,16.7045455 51.883711,16.7045455 C54.6182266,16.7045455 56.8858396,17.5681732 58.6866182,19.2954545 C60.4873968,21.0227359 61.3877726,23.4204392 61.3877726,26.4886364 C61.3877726,27.1477306 61.3433096,27.7613608 61.2543822,28.3295455 L48.4489098,28.3295455 C48.560069,29.1704588 48.9268887,29.8579519 49.5493801,30.3920455 C50.1718714,30.926139 50.8443743,31.1931818 51.5669089,31.1931818 C52.2894435,31.1931818 52.8285574,31.1193189 53.1842668,30.9715909 C53.5399761,30.8238629 53.8011963,30.6761371 53.967935,30.5284091 C54.1346738,30.3806811 54.3514309,30.1363653 54.6182129,29.7954545 L60.787516,29.7954545 C60.253952,31.704555 59.18684,33.2443123 57.5861479,34.4147727 C55.9854559,35.5852331 54.0846626,36.1704545 51.883711,36.1704545 Z M54.3180847,22.5170455 C53.6511296,21.9602245 52.8619114,21.6818182 51.9504062,21.6818182 C51.038901,21.6818182 50.2719142,21.9602245 49.6494228,22.5170455 C49.0269315,23.0738664 48.6378802,23.7954501 48.4822574,24.6818182 L55.4519025,24.6818182 C55.3629752,23.7954501 54.9850397,23.0738664 54.3180847,22.5170455 Z M69.2578025,35.5568182 L62.0213767,16.9090909 L68.490808,16.9090909 L72.6259085,29.3522727 L77.16118,16.9090909 L83.1303976,16.9090909 L71.2586575,45 L65.2894399,45 L69.2578025,35.5568182 Z M89.0996152,35.0113636 C88.4993557,35.6250031 87.7601583,35.9318182 86.8820009,35.9318182 C86.0038434,35.9318182 85.264646,35.6250031 84.6643865,35.0113636 C84.064127,34.3977242 83.7640017,33.6420499 83.7640017,32.7443182 C83.7640017,31.8465864 84.064127,31.0909122 84.6643865,30.4772727 C85.264646,29.8636333 86.0038434,29.5568182 86.8820009,29.5568182 C87.7601583,29.5568182 88.4993557,29.8636333 89.0996152,30.4772727 C89.6998747,31.0909122 90,31.8465864 90,32.7443182 C90,33.6420499 89.6998747,34.3977242 89.0996152,35.0113636 Z" id="Frey." fill="#222222"></path>
                <path d="M19,7 L19,0 L0,0 L0,19 L7,19 L7,7 L19,7 Z" id="Combined-Shape" fill="#0038E3"></path>
            </g>
        </g>
    </g>
</svg>