<svg xmlns="http://www.w3.org/2000/svg"><symbol viewBox="0 0 90 45" id="frey-logo"><title>Group 6</title><g fill="none" fill-rule="evenodd"><path d="M12 35.932V12h15.24v4.432h-9.538v5.148h7.137v4.431h-7.137v9.92H12zm24.21-19.023v3.546c1.334-2.5 3.113-3.75 5.336-3.75v5.931h-1.4c-1.312 0-2.296.319-2.952.955-.656.636-.984 1.75-.984 3.34v9h-5.702V16.91h5.702zM51.884 36.17c-2.713 0-4.936-.892-6.67-2.676-1.734-1.784-2.6-4.153-2.6-7.108 0-2.954.86-5.306 2.584-7.056 1.722-1.75 3.951-2.625 6.686-2.625 2.734 0 5.002.863 6.803 2.59 1.8 1.728 2.7 4.125 2.7 7.194 0 .659-.044 1.272-.133 1.84H48.45c.111.841.478 1.529 1.1 2.063.623.534 1.295.801 2.018.801.722 0 1.262-.074 1.617-.221.356-.148.617-.296.784-.444.167-.147.383-.392.65-.733h6.17c-.534 1.91-1.601 3.45-3.202 4.62-1.6 1.17-3.501 1.755-5.702 1.755zm2.434-13.653c-.667-.557-1.456-.835-2.368-.835-.911 0-1.678.278-2.3.835-.623.557-1.012 1.278-1.168 2.165h6.97c-.089-.887-.467-1.608-1.134-2.165zm14.94 13.04L62.02 16.909h6.47l4.135 12.443L77.16 16.91h5.97L71.258 45h-5.97l3.969-9.443zM89.1 35.01c-.6.614-1.34.92-2.218.92-.878 0-1.617-.306-2.218-.92-.6-.613-.9-1.369-.9-2.267 0-.897.3-1.653.9-2.267.6-.613 1.34-.92 2.218-.92.878 0 1.617.307 2.218.92.6.614.9 1.37.9 2.267 0 .898-.3 1.654-.9 2.267z" fill="#222"/><path d="M19 7V0H0v19h7V7h12z" fill="#0038E3"/></g></symbol><symbol id="svg-defs"><title>svg-defs</title></symbol></svg>